<svg width="79" height="87" viewBox="0 0 79 87" fill="none" xmlns="http://www.w3.org/2000/svg">
<path d="M65.3673 21.3592H61.9319C60.9118 17.4084 58.804 13.823 55.848 11.0104C52.8921 8.19768 49.2064 6.27054 45.2099 5.4479C41.2133 4.62527 37.0662 4.94013 33.2397 6.3567C29.4131 7.77328 26.0607 10.2348 23.5632 13.4615C21.0657 16.6882 19.5234 20.5507 19.1115 24.6102C18.6995 28.6697 19.4345 32.7633 21.2329 36.4259C23.0313 40.0885 25.8209 43.1733 29.2849 45.3297C32.7489 47.4861 36.7482 48.6276 40.8285 48.6245H65.3673C68.9829 48.6245 72.4505 47.1882 75.0071 44.6316C77.5637 42.075 79 38.6075 79 34.9919C79 31.3763 77.5637 27.9087 75.0071 25.3521C72.4505 22.7955 68.9829 21.3592 65.3673 21.3592Z" fill="url(#paint0_linear_6_73)"/>
<path d="M41.2355 39.0063L18.423 61.7907L32.9832 65.3964L26.9424 82.8563L49.7549 60.0719L35.1947 56.4662L41.2355 39.0063Z" fill="#FFE600"/>
<path d="M46.3673 16.3592H42.9319C41.9118 12.4084 39.804 8.82303 36.848 6.01036C33.8921 3.19768 30.2064 1.27054 26.2099 0.447904C22.2133 -0.374732 18.0662 -0.0598739 14.2397 1.3567C10.4131 2.77328 7.06066 5.23477 4.56319 8.46147C2.06571 11.6882 0.523385 15.5507 0.111453 19.6102C-0.30048 23.6697 0.434502 27.7633 2.23288 31.4259C4.03126 35.0885 6.82093 38.1733 10.2849 40.3297C13.7489 42.4861 17.7482 43.6276 21.8285 43.6245H46.3673C49.9829 43.6245 53.4505 42.1882 56.0071 39.6316C58.5637 37.075 60 33.6075 60 29.9919C60 26.3763 58.5637 22.9087 56.0071 20.3521C53.4505 17.7955 49.9829 16.3592 46.3673 16.3592Z" fill="url(#paint1_linear_6_73)"/>
<defs>
<linearGradient id="paint0_linear_6_73" x1="49" y1="5" x2="49" y2="48.6245" gradientUnits="userSpaceOnUse">
<stop stop-color="#DDDDDD"/>
<stop offset="1" stop-color="#BEBEBE"/>
</linearGradient>
<linearGradient id="paint1_linear_6_73" x1="30" y1="0" x2="30" y2="43.6245" gradientUnits="userSpaceOnUse">
<stop stop-color="white"/>
<stop offset="1" stop-color="#DDDBDB"/>
</linearGradient>
</defs>
</svg>
